<mxfile host="65bd71144e">
    <diagram id="0_reUhO-FMBeWwWuBeMp" name="Page-1">
        <mxGraphModel dx="1574" dy="403" grid="1" gridSize="10" guides="1" tooltips="1" connect="1" arrows="1" fold="1" page="1" pageScale="1" pageWidth="850" pageHeight="1100" math="0" shadow="0">
            <root>
                <mxCell id="0"/>
                <mxCell id="1" parent="0"/>
                <mxCell id="2" value="Driver" style="rounded=0;whiteSpace=wrap;html=1;" vertex="1" parent="1">
                    <mxGeometry x="40" y="220" width="120" height="60" as="geometry"/>
                </mxCell>
                <mxCell id="3" value="Vehicles" style="rounded=0;whiteSpace=wrap;html=1;" vertex="1" parent="1">
                    <mxGeometry x="590" y="220" width="120" height="60" as="geometry"/>
                </mxCell>
                <mxCell id="4" value="Assigment" style="html=1;whiteSpace=wrap;aspect=fixed;shape=isoRectangle;" vertex="1" parent="1">
                    <mxGeometry x="300" y="205" width="150" height="90" as="geometry"/>
                </mxCell>
                <mxCell id="7" value="" style="endArrow=none;html=1;exitX=1;exitY=0.5;exitDx=0;exitDy=0;entryX=0.007;entryY=0.5;entryDx=0;entryDy=0;entryPerimeter=0;" edge="1" parent="1" source="2" target="4">
                    <mxGeometry width="50" height="50" relative="1" as="geometry">
                        <mxPoint x="210" y="380" as="sourcePoint"/>
                        <mxPoint x="270" y="330" as="targetPoint"/>
                    </mxGeometry>
                </mxCell>
                <mxCell id="8" value="" style="endArrow=none;html=1;entryX=0;entryY=0.5;entryDx=0;entryDy=0;exitX=1;exitY=0.511;exitDx=0;exitDy=0;exitPerimeter=0;" edge="1" parent="1" source="4" target="3">
                    <mxGeometry width="50" height="50" relative="1" as="geometry">
                        <mxPoint x="480" y="200" as="sourcePoint"/>
                        <mxPoint x="560" y="200" as="targetPoint"/>
                    </mxGeometry>
                </mxCell>
                <mxCell id="9" value="1" style="text;strokeColor=none;fillColor=none;align=left;verticalAlign=middle;spacingLeft=4;spacingRight=4;overflow=hidden;points=[[0,0.5],[1,0.5]];portConstraint=eastwest;rotatable=0;" vertex="1" parent="1">
                    <mxGeometry x="230" y="220" width="20" height="30" as="geometry"/>
                </mxCell>
                <mxCell id="10" value="N" style="text;strokeColor=none;fillColor=none;align=left;verticalAlign=middle;spacingLeft=4;spacingRight=4;overflow=hidden;points=[[0,0.5],[1,0.5]];portConstraint=eastwest;rotatable=0;" vertex="1" parent="1">
                    <mxGeometry x="510" y="220" width="20" height="30" as="geometry"/>
                </mxCell>
                <mxCell id="14" value="created_at" style="ellipse;whiteSpace=wrap;html=1;" vertex="1" parent="1">
                    <mxGeometry x="30" y="100" width="80" height="40" as="geometry"/>
                </mxCell>
                <mxCell id="15" value="credential_type" style="ellipse;whiteSpace=wrap;html=1;" vertex="1" parent="1">
                    <mxGeometry x="120" y="100" width="90" height="40" as="geometry"/>
                </mxCell>
                <mxCell id="16" value="dob" style="ellipse;whiteSpace=wrap;html=1;" vertex="1" parent="1">
                    <mxGeometry x="-40" y="140" width="90" height="40" as="geometry"/>
                </mxCell>
                <mxCell id="17" value="email (Unique)" style="ellipse;whiteSpace=wrap;html=1;" vertex="1" parent="1">
                    <mxGeometry x="-110" y="180" width="90" height="40" as="geometry"/>
                </mxCell>
                <mxCell id="18" value="Name" style="ellipse;whiteSpace=wrap;html=1;" vertex="1" parent="1">
                    <mxGeometry x="-110" y="240" width="90" height="40" as="geometry"/>
                </mxCell>
                <mxCell id="19" value="phone" style="ellipse;whiteSpace=wrap;html=1;" vertex="1" parent="1">
                    <mxGeometry x="-60" y="295" width="90" height="40" as="geometry"/>
                </mxCell>
                <mxCell id="20" value="id (PK)" style="ellipse;whiteSpace=wrap;html=1;" vertex="1" parent="1">
                    <mxGeometry x="40" y="335" width="90" height="40" as="geometry"/>
                </mxCell>
                <mxCell id="21" value="" style="endArrow=none;html=1;entryX=0.5;entryY=1;entryDx=0;entryDy=0;exitX=0.75;exitY=0;exitDx=0;exitDy=0;" edge="1" parent="1" source="2" target="15">
                    <mxGeometry width="50" height="50" relative="1" as="geometry">
                        <mxPoint x="160" y="210" as="sourcePoint"/>
                        <mxPoint x="210" y="160" as="targetPoint"/>
                    </mxGeometry>
                </mxCell>
                <mxCell id="22" value="" style="endArrow=none;html=1;entryX=0.5;entryY=1;entryDx=0;entryDy=0;exitX=0.5;exitY=0;exitDx=0;exitDy=0;" edge="1" parent="1" source="2" target="14">
                    <mxGeometry width="50" height="50" relative="1" as="geometry">
                        <mxPoint x="82.49999999999977" y="220" as="sourcePoint"/>
                        <mxPoint x="117.49999999999977" y="140" as="targetPoint"/>
                    </mxGeometry>
                </mxCell>
                <mxCell id="23" value="" style="endArrow=none;html=1;entryX=0.5;entryY=1;entryDx=0;entryDy=0;" edge="1" parent="1" target="16">
                    <mxGeometry width="50" height="50" relative="1" as="geometry">
                        <mxPoint x="80" y="220" as="sourcePoint"/>
                        <mxPoint x="49.99999999999977" y="140" as="targetPoint"/>
                    </mxGeometry>
                </mxCell>
                <mxCell id="24" value="" style="endArrow=none;html=1;entryX=1;entryY=0.5;entryDx=0;entryDy=0;exitX=0;exitY=0.25;exitDx=0;exitDy=0;" edge="1" parent="1" source="2" target="17">
                    <mxGeometry width="50" height="50" relative="1" as="geometry">
                        <mxPoint x="89.99999999999977" y="230" as="sourcePoint"/>
                        <mxPoint x="14.999999999999773" y="190" as="targetPoint"/>
                    </mxGeometry>
                </mxCell>
                <mxCell id="25" value="" style="endArrow=none;html=1;entryX=1;entryY=0.5;entryDx=0;entryDy=0;exitX=0;exitY=0.5;exitDx=0;exitDy=0;" edge="1" parent="1" source="2" target="18">
                    <mxGeometry width="50" height="50" relative="1" as="geometry">
                        <mxPoint x="49.99999999999977" y="245" as="sourcePoint"/>
                        <mxPoint x="-10.000000000000227" y="210" as="targetPoint"/>
                    </mxGeometry>
                </mxCell>
                <mxCell id="26" value="" style="endArrow=none;html=1;entryX=1;entryY=0.5;entryDx=0;entryDy=0;exitX=0.25;exitY=1;exitDx=0;exitDy=0;" edge="1" parent="1" source="2" target="19">
                    <mxGeometry width="50" height="50" relative="1" as="geometry">
                        <mxPoint x="49.99999999999977" y="245" as="sourcePoint"/>
                        <mxPoint x="-10.000000000000227" y="210" as="targetPoint"/>
                    </mxGeometry>
                </mxCell>
                <mxCell id="27" value="" style="endArrow=none;html=1;entryX=0.5;entryY=0;entryDx=0;entryDy=0;exitX=0.5;exitY=1;exitDx=0;exitDy=0;" edge="1" parent="1" source="2" target="20">
                    <mxGeometry width="50" height="50" relative="1" as="geometry">
                        <mxPoint x="79.99999999999977" y="290" as="sourcePoint"/>
                        <mxPoint x="39.99999999999977" y="325" as="targetPoint"/>
                    </mxGeometry>
                </mxCell>
                <mxCell id="28" value="Brand" style="ellipse;whiteSpace=wrap;html=1;" vertex="1" parent="1">
                    <mxGeometry x="590" y="90" width="90" height="40" as="geometry"/>
                </mxCell>
                <mxCell id="29" value="" style="endArrow=none;html=1;entryX=0.5;entryY=1;entryDx=0;entryDy=0;exitX=0.202;exitY=-0.004;exitDx=0;exitDy=0;exitPerimeter=0;" edge="1" parent="1" target="28" source="3">
                    <mxGeometry width="50" height="50" relative="1" as="geometry">
                        <mxPoint x="599.9999999999998" y="210" as="sourcePoint"/>
                        <mxPoint x="680" y="150" as="targetPoint"/>
                    </mxGeometry>
                </mxCell>
                <mxCell id="30" value="model" style="ellipse;whiteSpace=wrap;html=1;" vertex="1" parent="1">
                    <mxGeometry x="690" y="90" width="90" height="40" as="geometry"/>
                </mxCell>
                <mxCell id="31" value="" style="endArrow=none;html=1;entryX=0.5;entryY=1;entryDx=0;entryDy=0;exitX=0.5;exitY=0;exitDx=0;exitDy=0;" edge="1" parent="1" target="30" source="3">
                    <mxGeometry width="50" height="50" relative="1" as="geometry">
                        <mxPoint x="700" y="210" as="sourcePoint"/>
                        <mxPoint x="780" y="150" as="targetPoint"/>
                    </mxGeometry>
                </mxCell>
                <mxCell id="32" value="VIN(Unique)" style="ellipse;whiteSpace=wrap;html=1;" vertex="1" parent="1">
                    <mxGeometry x="760" y="140" width="90" height="40" as="geometry"/>
                </mxCell>
                <mxCell id="33" value="" style="endArrow=none;html=1;entryX=0.5;entryY=1;entryDx=0;entryDy=0;exitX=1;exitY=0;exitDx=0;exitDy=0;" edge="1" parent="1" target="32" source="3">
                    <mxGeometry width="50" height="50" relative="1" as="geometry">
                        <mxPoint x="770" y="260" as="sourcePoint"/>
                        <mxPoint x="850" y="200" as="targetPoint"/>
                    </mxGeometry>
                </mxCell>
                <mxCell id="34" value="id" style="ellipse;whiteSpace=wrap;html=1;" vertex="1" parent="1">
                    <mxGeometry x="750" y="200" width="90" height="40" as="geometry"/>
                </mxCell>
                <mxCell id="35" value="" style="endArrow=none;html=1;entryX=0.5;entryY=1;entryDx=0;entryDy=0;exitX=1;exitY=0.5;exitDx=0;exitDy=0;" edge="1" parent="1" target="34" source="3">
                    <mxGeometry width="50" height="50" relative="1" as="geometry">
                        <mxPoint x="760" y="320" as="sourcePoint"/>
                        <mxPoint x="840" y="260" as="targetPoint"/>
                    </mxGeometry>
                </mxCell>
                <mxCell id="36" value="maximum_laded_weight" style="ellipse;whiteSpace=wrap;html=1;" vertex="1" parent="1">
                    <mxGeometry x="660" y="290" width="160" height="40" as="geometry"/>
                </mxCell>
                <mxCell id="37" value="" style="endArrow=none;html=1;entryX=0.5;entryY=0;entryDx=0;entryDy=0;exitX=1;exitY=1;exitDx=0;exitDy=0;" edge="1" parent="1" target="36" source="3">
                    <mxGeometry width="50" height="50" relative="1" as="geometry">
                        <mxPoint x="740" y="410" as="sourcePoint"/>
                        <mxPoint x="820" y="350" as="targetPoint"/>
                    </mxGeometry>
                </mxCell>
                <mxCell id="38" value="Expiration_date" style="ellipse;whiteSpace=wrap;html=1;" vertex="1" parent="1">
                    <mxGeometry x="250" y="130" width="90" height="40" as="geometry"/>
                </mxCell>
                <mxCell id="39" value="" style="endArrow=none;html=1;entryX=0.5;entryY=1;entryDx=0;entryDy=0;exitX=0.333;exitY=0.167;exitDx=0;exitDy=0;exitPerimeter=0;" edge="1" parent="1" target="38" source="4">
                    <mxGeometry width="50" height="50" relative="1" as="geometry">
                        <mxPoint x="384.2399999999998" y="209.7600000000001" as="sourcePoint"/>
                        <mxPoint x="450" y="140" as="targetPoint"/>
                    </mxGeometry>
                </mxCell>
                <mxCell id="40" value="is_expired" style="ellipse;whiteSpace=wrap;html=1;" vertex="1" parent="1">
                    <mxGeometry x="410" y="130" width="90" height="40" as="geometry"/>
                </mxCell>
                <mxCell id="41" value="" style="endArrow=none;html=1;entryX=0.5;entryY=1;entryDx=0;entryDy=0;exitX=0.702;exitY=0.225;exitDx=0;exitDy=0;exitPerimeter=0;" edge="1" parent="1" target="40" source="4">
                    <mxGeometry width="50" height="50" relative="1" as="geometry">
                        <mxPoint x="444.2399999999998" y="229.7600000000001" as="sourcePoint"/>
                        <mxPoint x="510" y="160" as="targetPoint"/>
                    </mxGeometry>
                </mxCell>
                <mxCell id="42" value="Notes" style="ellipse;whiteSpace=wrap;html=1;" vertex="1" parent="1">
                    <mxGeometry x="320" y="320" width="90" height="40" as="geometry"/>
                </mxCell>
                <mxCell id="43" value="" style="endArrow=none;html=1;entryX=0.5;entryY=0;entryDx=0;entryDy=0;exitX=0.477;exitY=0.976;exitDx=0;exitDy=0;exitPerimeter=0;" edge="1" parent="1" target="42" source="4">
                    <mxGeometry width="50" height="50" relative="1" as="geometry">
                        <mxPoint x="454.2399999999998" y="449.7600000000001" as="sourcePoint"/>
                        <mxPoint x="520" y="380" as="targetPoint"/>
                    </mxGeometry>
                </mxCell>
            </root>
        </mxGraphModel>
    </diagram>
</mxfile>